<svg width="42" height="42" viewBox="0 0 42 42" fill="none" xmlns="http://www.w3.org/2000/svg">
<g clip-path="url(#clip0_147_555)">
<path d="M9.77653 13.5122H1.34496C0.970754 13.5122 0.667542 13.8156 0.667542 14.1896V41.2766C0.667542 41.6509 0.970754 41.9541 1.34496 41.9541H9.77653C10.1507 41.9541 10.4539 41.6509 10.4539 41.2766V14.1896C10.4539 13.8156 10.1507 13.5122 9.77653 13.5122Z" fill="#8D8F95"/>
<path d="M5.56378 0.0463867C2.49588 0.0463867 0 2.53956 0 5.60407C0 8.66993 2.49588 11.1641 5.56378 11.1641C8.62924 11.1641 11.1231 8.6698 11.1231 5.60407C11.1232 2.53956 8.62924 0.0463867 5.56378 0.0463867Z" fill="#8D8F95"/>
<path d="M31.2228 12.8389C27.8364 12.8389 25.333 14.2946 23.8147 15.9488V14.1895C23.8147 13.8154 23.5115 13.5121 23.1373 13.5121H15.0626C14.6883 13.5121 14.3851 13.8154 14.3851 14.1895V41.2765C14.3851 41.6507 14.6883 41.9539 15.0626 41.9539H23.4757C23.8499 41.9539 24.1531 41.6507 24.1531 41.2765V27.8747C24.1531 23.3586 25.3798 21.5993 28.5279 21.5993C31.9564 21.5993 32.2289 24.4198 32.2289 28.1071V41.2767C32.2289 41.6509 32.5321 41.9541 32.9063 41.9541H41.3226C41.6968 41.9541 42 41.6509 42 41.2767V26.419C42 19.7037 40.7195 12.8389 31.2228 12.8389Z" fill="#8D8F95"/>
</g>
<defs>
<clipPath id="clip0_147_555">
<rect width="42" height="42" fill="white"/>
</clipPath>
</defs>
</svg>
