<svg width="252" height="76" viewBox="0 0 252 76" fill="none" xmlns="http://www.w3.org/2000/svg">
<rect width="252" height="75" transform="translate(0 0.5)" fill="white"/>
<g clip-path="url(#clip0_147_514)">
<path d="M51.3 56H34.8V39.5H51.3V56Z" fill="#DB0720"/>
<path d="M33 41.4999L23.7 37.1999L28 27.8999L37.3 32.1999L33 41.4999Z" fill="#005CA9"/>
<path d="M39.7 33.1L35.6 27.9L40.8 24L44.7 29L39.7 33.1Z" fill="#F9B000"/>
<path d="M36.9 24.6L33 24L33.7 20L37.6 20.7L36.9 24.6Z" fill="#DB0720"/>
</g>
<path d="M76.07 37.9999C76.07 36.8344 76.07 35.7601 76 34.7972H78.18V36.4999C78.4753 35.9027 78.9319 35.4027 79.4966 35.0582C80.0614 34.7137 80.711 34.5389 81.37 34.554C82.0428 34.5005 82.7138 34.6784 83.2745 35.0591C83.8352 35.4398 84.2529 36.001 84.46 36.652C84.7856 35.989 85.2924 35.4349 85.9201 35.0557C86.5477 34.6766 87.2697 34.4883 88 34.5135C90.54 34.5135 91.45 36.2162 91.45 38.8918V45.9864H89.19V39.0135C89.19 37.4121 88.86 36.1148 87.19 36.1148C85.52 36.1148 84.87 37.4526 84.87 39.3276V46.0168H82.64V39.0743C82.64 37.4222 82.33 36.1249 80.64 36.1249C78.95 36.1249 78.27 37.7972 78.27 39.4087V46.027H76.07V37.9999Z" fill="#505456"/>
<path d="M93.92 40.6353C93.92 37.1691 95.17 34.5542 98.79 34.5542C102.16 34.5542 103.27 36.9664 103.22 40.8076H96.1C96.1 43.5137 96.87 44.8616 98.7 44.8616C100.11 44.8616 100.89 44.0305 101.04 42.4191L103.13 42.7333C102.74 45.1454 101.13 46.311 98.66 46.311C95.19 46.2704 93.92 44.0103 93.92 40.6353ZM96.12 39.3583H101.06C101.06 37.5947 100.46 36.0137 98.72 36.0137C96.98 36.0137 96.3 37.2806 96.12 39.3583Z" fill="#505456"/>
<path d="M105 42.8752L107.19 42.5407C107.19 44.0103 107.89 44.8414 109.19 44.8414C109.438 44.8695 109.688 44.8453 109.926 44.7701C110.164 44.6949 110.384 44.5705 110.572 44.4048C110.76 44.239 110.912 44.0355 111.018 43.807C111.125 43.5786 111.183 43.3303 111.19 43.0779C111.19 41.892 110.19 41.4866 108.65 40.9292C106.58 40.1691 105.21 39.6319 105.21 37.6454C105.21 35.4056 107.21 34.5137 109.32 34.5137C111.76 34.5137 113 35.5272 113.15 37.6252L110.99 37.9292C111.04 36.5204 110.35 35.9022 109.18 35.9022C108.26 35.9022 107.38 36.3684 107.38 37.4022C107.38 38.436 108.19 38.8312 109.62 39.3684C111.79 40.1691 113.39 40.5745 113.39 42.7637C113.39 45.1961 111.48 46.2502 109.1 46.2502C106.49 46.2704 105.1 45.0948 105 42.8752Z" fill="#505456"/>
<path d="M115.16 42.8752L117.35 42.5407C117.35 44.0103 118.05 44.8414 119.35 44.8414C119.598 44.8695 119.848 44.8453 120.086 44.7701C120.324 44.6949 120.544 44.5705 120.732 44.4048C120.92 44.239 121.072 44.0355 121.178 43.807C121.285 43.5786 121.343 43.3303 121.35 43.0779C121.35 41.892 120.35 41.4866 118.81 40.9292C116.74 40.1691 115.37 39.6319 115.37 37.6454C115.37 35.4056 117.37 34.5137 119.47 34.5137C121.92 34.5137 123.16 35.5272 123.31 37.6252L121.15 37.9292C121.15 36.5204 120.51 35.9022 119.34 35.9022C118.42 35.9022 117.53 36.3684 117.53 37.4022C117.53 38.436 118.35 38.8312 119.78 39.3684C121.94 40.1691 123.55 40.5745 123.55 42.7637C123.55 45.1961 121.64 46.2502 119.25 46.2502C116.64 46.2704 115.25 45.0948 115.16 42.8752Z" fill="#505456"/>
<path d="M125.36 40.6353C125.36 37.1691 126.61 34.5542 130.23 34.5542C133.6 34.5542 134.71 36.9664 134.66 40.8076H127.54C127.54 43.5137 128.31 44.8616 130.14 44.8616C131.55 44.8616 132.32 44.0305 132.48 42.4191L134.57 42.7333C134.18 45.1454 132.57 46.311 130.1 46.311C126.63 46.2704 125.36 44.0103 125.36 40.6353ZM127.56 39.3583H132.5C132.5 37.5947 131.9 36.0137 130.16 36.0137C128.42 36.0137 127.74 37.2806 127.56 39.3583Z" fill="#505456"/>
<path d="M143.78 36.2971H141.86V34.7565H143.78V33.2869C143.78 30.9862 144.53 29.7295 146.78 29.7295C147.16 29.7295 147.67 29.7295 148.41 29.8207V31.4018C148.19 31.4018 147.97 31.4018 147.67 31.4018C146.36 31.4018 146.03 32.0099 146.03 33.3275V34.7565H148.28V36.2971H146V46.0268H143.8L143.78 36.2971Z" fill="#505456"/>
<path d="M150.2 37.5539C150.2 37.2195 150.2 35.0911 150.13 34.7566H152.27L152.34 36.4999C152.624 35.9106 153.067 35.4149 153.617 35.0705C154.168 34.7261 154.803 34.5469 155.45 34.5539C155.612 34.5561 155.774 34.58 155.93 34.6249V36.6519C155.693 36.5994 155.452 36.5689 155.21 36.5607C153.33 36.5607 152.4 37.7465 152.4 39.8242V46.0167H150.2C150.22 44.1722 150.22 38.385 150.2 37.5539Z" fill="#505456"/>
<path d="M156.86 42.9157C156.86 39.6319 159.93 39.0745 162.99 39.0745H163.57V38.4867C163.57 36.9056 163.13 35.9225 161.57 35.9225C161.315 35.8901 161.057 35.9156 160.813 35.997C160.569 36.0785 160.347 36.2138 160.161 36.3933C159.975 36.5728 159.831 36.7919 159.739 37.0348C159.648 37.2776 159.61 37.5382 159.63 37.7975L157.47 37.5137C157.63 35.365 159.3 34.4731 161.57 34.4731C164.44 34.4731 165.7 35.5475 165.7 38.5272V42.1049C165.7 43.5542 165.76 44.9022 165.87 45.9968H163.81C163.81 45.7434 163.74 44.811 163.7 44.4056C163.356 44.9951 162.859 45.4777 162.263 45.8011C161.667 46.1245 160.995 46.2763 160.32 46.24C159.87 46.2874 159.414 46.2354 158.985 46.0877C158.557 45.94 158.165 45.7 157.836 45.3842C157.507 45.0684 157.25 44.6843 157.081 44.2582C156.913 43.8321 156.837 43.3741 156.86 42.9157ZM163.57 40.3921H162.79C160.41 40.3921 159.07 41.1319 159.07 42.784C159.052 43.0548 159.092 43.3263 159.186 43.5804C159.28 43.8344 159.427 44.0651 159.617 44.2571C159.806 44.449 160.034 44.5977 160.284 44.6932C160.535 44.7887 160.803 44.8289 161.07 44.811C163.07 44.811 163.61 43.2198 163.61 40.9799L163.57 40.3921Z" fill="#505456"/>
<path d="M168.78 37.1995C168.78 36.4799 168.78 35.6792 168.71 34.7569H170.92V36.4394C171.25 35.8422 171.735 35.3475 172.321 35.0082C172.908 34.669 173.575 34.498 174.25 34.5137C176.61 34.5137 177.78 35.9022 177.78 38.5677V46.0373H175.57V39.3583C175.57 37.5948 175.39 36.1252 173.5 36.1252C171.76 36.1252 170.96 37.6454 170.96 39.8549V46.0272H168.76L168.78 37.1995Z" fill="#505456"/>
<path d="M181 29.8921H183.22V46.1083H181V29.8921ZM183.25 39.6826L187.39 34.7874H190L185.69 39.6218L190.41 46.0576H187.7L183.25 39.6826Z" fill="#505456"/>
<path d="M192.67 36.2971H190.75V34.7565H192.67V33.2869C192.67 30.9862 193.42 29.7295 195.67 29.7295C196.04 29.7295 196.55 29.7295 197.3 29.8207V31.4018C197.08 31.4018 196.86 31.4018 196.55 31.4018C195.25 31.4018 194.92 32.0099 194.92 33.3275V34.7565H197.17V36.2971H194.92V46.0268H192.71L192.67 36.2971Z" fill="#505456"/>
<path d="M199.09 42.3582V34.7568H201.32V41.4866C201.32 43.2501 201.5 44.7095 203.42 44.7095C205.09 44.7095 205.91 43.4122 205.91 41.1318V34.7568H208.11V42.7839C208.11 43.7974 208.11 44.8109 208.2 46.0271H206V44.3649C205.668 44.9434 205.193 45.4237 204.621 45.758C204.049 46.0923 203.4 46.269 202.74 46.2704C200.28 46.2704 199.09 44.9528 199.09 42.3582Z" fill="#505456"/>
<path d="M211.27 37.5538C211.27 37.2194 211.27 35.091 211.21 34.7565H213.34L213.41 36.4998C213.695 35.9113 214.138 35.4163 214.688 35.072C215.238 34.7277 215.873 34.5481 216.52 34.5538C216.686 34.5561 216.85 34.5799 217.01 34.6248V36.6518C216.77 36.5995 216.526 36.569 216.28 36.5606C214.4 36.5606 213.48 37.7464 213.48 39.8241V46.0167H211.27C211.29 44.1721 211.29 38.3849 211.27 37.5538Z" fill="#505456"/>
<path d="M219.44 43.3616V36.3278H217.52V34.7568H219.44V32.7298L221.66 31.7974V34.8379H223.93V36.4089H221.66V42.8143C221.66 44.0507 221.8 44.5676 223.05 44.5676C223.23 44.5676 223.69 44.5676 224 44.4764V46.0778C223.437 46.1626 222.869 46.1999 222.3 46.1893C220.27 46.1082 219.44 45.4393 219.44 43.3616Z" fill="#505456"/>
<defs>
<clipPath id="clip0_147_514">
<rect width="28" height="36" fill="white" transform="translate(23.5 20)"/>
</clipPath>
</defs>
</svg>
